<svg xmlns="http://www.w3.org/2000/svg" width="186.649" height="44.808" viewBox="0 0 186.649 44.808">
  <g id="Group_10185" data-name="Group 10185" transform="translate(-122 -23.192)">
    <g id="Group_10184" data-name="Group 10184" transform="translate(-111 -60.807)">
      <path id="Path_537" data-name="Path 537" d="M313.623,66.353l-2.211,2.695-.756-2.695h-1.844l1.424,4.2-.735,2.76h1.675l.7-2.6,3.788-4.352Z" transform="translate(98.261 55.383)" fill="#cf4520"/>
      <path id="Path_538" data-name="Path 538" d="M278.435,70.612h1.483l-.268.934a2.671,2.671,0,0,1-1.117.235,1.479,1.479,0,0,1-1.618-1.526,2.512,2.512,0,0,1,2.443-2.552,2.138,2.138,0,0,1,1.691.75l.062.072,1.231-1.1-.055-.071a3.347,3.347,0,0,0-2.815-1.207A4.241,4.241,0,0,0,275.19,70.3a3.025,3.025,0,0,0,3.247,3.032,4.833,4.833,0,0,0,2.48-.649l1.025-3.553h-3.11Z" transform="translate(112.931 55.472)" fill="#cf4520"/>
      <path id="Path_539" data-name="Path 539" d="M245.3,69.639h-1.188l.465-1.751,1.163,0c.547,0,1.091.115,1.091.724,0,.8-.879,1.024-1.531,1.024m3.265-1.15c0-1.845-1.643-2.134-2.739-2.134h-2.516l-1.853,6.955h1.675l.573-2.166h.97l1.032,2.166H247.6l-1.156-2.341a2.5,2.5,0,0,0,2.121-2.48" transform="translate(127.648 55.382)" fill="#cf4520"/>
      <path id="Path_540" data-name="Path 540" d="M216.412,67.869l.405-1.519h-5.207l-1.852,6.958h5.256l.405-1.516h-3.6l.33-1.238h3.115l.405-1.5h-3.112l.312-1.187Z" transform="translate(141.48 55.384)" fill="#cf4520"/>
      <path id="Path_541" data-name="Path 541" d="M182.314,66.352l-1.1,4.112-1.868-4.112h-1.5L176,73.31h1.654l1.129-4.252,1.946,4.252h1.388l1.852-6.958Z" transform="translate(156.21 55.383)" fill="#cf4520"/>
      <path id="Path_542" data-name="Path 542" d="M150.948,67.87l.405-1.518h-5.207l-1.852,6.958h5.256l.4-1.518h-3.6l.33-1.238H149.8l.407-1.5h-3.113l.312-1.187Z" transform="translate(170.042 55.383)" fill="#cf4520"/>
      <path id="Path_543" data-name="Path 543" d="M288.4,31.195l4.043-4.216a10.459,10.459,0,0,0,7.539,3.338c1.834,0,2.942-.791,2.942-2.179,0-.929-1.153-1.577-2.852-2.319-3.859-1.671-7.164-3.293-7.164-7.279,0-4.959,3.764-8.714,9.876-8.714a15.312,15.312,0,0,1,9.7,3.569l-3.772,4.452c-2.388-1.9-4.411-2.643-6.43-2.643-1.7,0-2.712.787-2.712,2.084,0,.976,1.192,1.671,3.26,2.6,3.217,1.437,6.756,3.152,6.756,7.045,0,5.425-4.228,8.762-10.112,8.762a15.72,15.72,0,0,1-11.073-4.5" transform="translate(107.166 79.762)" fill="#244c5a"/>
      <path id="Path_544" data-name="Path 544" d="M246.537,13.776l-2.714,10.218c-2.662,9.129,1.67,11.494,6.083,11.494H263.26l6.57-24.846h-4.6c-1.717,0-2.774,1.464-3.217,3.136l-4.2,15.775h-4.017c-2.158,0-4.23-1.067-3.079-5.283l3.634-13.628h-4.6c-1.716,0-2.773,1.462-3.216,3.135" transform="translate(126.973 79.41)" fill="#244c5a"/>
      <path id="Path_545" data-name="Path 545" d="M222.346,0a3.848,3.848,0,0,0-3.307,2.088L206.6,22.6,205.73,9.558c-.089-1.818-1.434-3.507-3.156-3.507h-4.248l2.987,25.031h6.343L227.794,0Z" transform="translate(146.468 84)" fill="#244c5a"/>
      <path id="Path_546" data-name="Path 546" d="M157.111,29.667c-3.169,0-5.328-2.039-5.328-5.655,0-3.525,2.8-8.161,7.078-8.161,3.168,0,5.329,2.041,5.329,5.657,0,3.521-2.8,8.159-7.078,8.159m2.07-19.842c-7.9,0-14.243,6.954-14.243,14.372,0,6.628,4.548,11.5,11.855,11.5,7.9,0,14.243-6.953,14.243-14.37,0-6.632-4.55-11.5-11.855-11.5" transform="translate(169.762 79.762)" fill="#244c5a"/>
      <path id="Path_547" data-name="Path 547" d="M112.322,39.107l4.5-16.972c2.662-9.129-1.67-11.494-6.083-11.494H97.381l-6.57,24.846h4.6c1.717,0,2.773-1.463,3.217-3.136l4.2-15.775h4.017c2.158,0,4.23,1.067,3.078,5.283L104.51,42.242h4.6c1.716,0,2.773-1.462,3.216-3.135" transform="translate(193.378 79.41)" fill="#244c5a"/>
      <path id="Path_548" data-name="Path 548" d="M62.79,20.765H52.085a7.494,7.494,0,0,1,6.892-5.283c2.906-.044,4.743,1.945,3.813,5.283m6.8-1.25c0-5.519-3.674-9.69-10.062-9.69-8.822,0-14.613,7.647-14.613,14.834,0,6.86,4.32,11.033,11.4,11.033A14.3,14.3,0,0,0,65.777,32.4l-3.216-4.358a8.953,8.953,0,0,1-5.468,1.994c-3.676,0-5.377-1.947-5.606-4.868H68.35a15.336,15.336,0,0,0,1.241-5.654" transform="translate(213.402 79.762)" fill="#244c5a"/>
      <path id="Path_549" data-name="Path 549" d="M0,24.475A14.674,14.674,0,0,1,14.519,9.824c5.42,0,8.407,2.5,10.106,5.471l-5.33,3.8c-1.238-1.9-2.572-3.244-5.329-3.244-3.676,0-7.077,4.035-7.077,8.626,0,3.2,2.114,5.236,4.824,5.236,2.163,0,3.723-.882,5.562-2.455l3.582,4.587a12.909,12.909,0,0,1-9.373,3.848C4.776,35.692,0,31.239,0,24.475" transform="translate(233 79.762)" fill="#244c5a"/>
    </g>
  </g>
</svg>
